<?xml version="1.0" encoding="UTF-8"?>
<svg id="Ebene_1" data-name="Ebene 1" xmlns="http://www.w3.org/2000/svg" viewBox="0 0 148.5 140.59">
  <defs>
    <style>
      .cls-1 {
        fill: #fff;
      }

      .cls-2 {
        fill: #75a394;
      }
    </style>
  </defs>
  <g>
    <path d="M.17,74.63c.62-4.7,2.5-10.23,7.62-11.49,7.34,3.26,12.09,22.09,14.91,29.52,2.2-6.57,3.46-12.02-.15-18.16-1.32-3.52-4.87-6.15-5.22-10.22-.51-1.98-1.56-3.83-.97-5.82-2.24-2.82-.61-6.72-1.58-10-.9-2.85-.43-5.77-1.1-8.63.27-3.34,1.34-7.35,3.22-10.06,2.08.27,4.33,1.22,5.16,3.29,1.2,2.02,3.66,3.36,3.67,6.01,5.19,6.88,4.49,16.35,6.49,24.47,4.08-3.49,5.36-9.27,7.74-13.9,1.51-3.41,4.25-5.96,6.32-8.99,1.34-1.77,3.07-5.02,5.55-3.22.61.4,1.84.44,2.05,1.18.25,4.36-.77,8.42-1.79,12.58-1.07,6.72-5.68,11.57-8.27,17.46-2.27,2.65-2.93,2.3-4.12,6.01-3.03,4.48-6.58,8.5-10.95,11.61-1.07,4.22-4.4,8.87-1.8,12.98,2.22-1.74,2.61-5.17,5.11-6.71,1.88-4.5,4.6-9.11,7.6-13.19,4.68-4.9,14.3-12.73,14.06-.36-.01.37-.02.76-.25,1.06-.79,1.25-.18,2.85-.59,4.24-1.84,2.79-2.24,6.2-3.54,9.16-3.58,4.38-5.84,9.88-9.44,14.07-2.38,1.62-4.47,3.55-6.2,5.86-2.63,3.14-6.15,5.54-8.47,8.89-1.38,1.36-3.39,2.01-4.28,3.95-.62,1.55-1.92,2.12-3.43,2.36-3.73-1.85-3.6-7.06-4.53-10.56-.87-1.64-.78-3.6-1.6-5.14-.52-.54-.79-1.19-1.03-1.87-.84-3.1-2.39-5.92-3.55-8.86-.45-3.46-1.69-6.78-2.78-10-2.54-2.31-3.63-6.7-2.93-10.05-.16-1.81-1.34-3.51-1.02-5.48l.11-2Z"/>
    <path d="M43.35.08c1.66-.02,1.72,1.76,2.4,2.95.72,1.8,1.05,3.72-1.46,3.67,3.41,1.17,2.69,1.32,3.12,4.69,1.45,6.98.08,13.94-3.14,20.23-1.73,4.34-1.33,9.68-4.98,13.16-1.63,1.38-3.14,3.99-5.52,2.63-2.47-1.46-2.16-5.98-.97-8.25,1.17-1.6-.32-3.34.03-5.07-.49-5.46.47-10.79,1.39-16.18.3-5.99-.06-16.93,7.67-17.9l1.46.08Z"/>
    <path class="cls-1" d="M18.17,91.09c-.27,1.95.82,3.69.96,5.6-.63,3.45.36,6.81.11,10.23-.9,3.78-1.43,14.12-5.05,5.07-2.11-3.44-2.23-7.81-4.17-11.29.15-1.17-.28-2.15-1.05-2.98-1.11-1.67-.84-3.91-1.93-5.66-2.25-4.11-6.65-23.83,1.44-22.06,2.61,3.95,5.47,8.6,6.58,13.05.52-.04.76-.19.86.35.34,2.73,2.63,4.88,2.25,7.69Z"/>
    <path class="cls-2" d="M25.11,117.2c-1.57-2.55,1.65-4.62.85-7.15-.04-.58.62-.45,1-.41.98-.75.54-2.97,2.05-3.61,1.45-4.82,4.48-8.98,6.82-13.41,1.28-1.88,2.72-3.84,3.16-6.03,2.57-2.48,4.38-5.62,7.26-7.86.81-.92,2.82-1.08,3.21.16-.27,3.64.04,7.69-2.31,10.75-2.15,2.58-1.29,6.79-4.62,8.33-.36,3.21-3.16,5.46-5.11,7.75-1.48.42-2.22,1.6-2.43,3.05-.2,1.01-1.71,1.09-2.44,1.69-2.44,2.35-5.47,3.89-7.46,6.76Z"/>
    <path class="cls-2" d="M28.08,56.07c-.45-.21-.9-.42-1.34-.63.24,1.3,1.18,2.63.7,4.06-.49,1.71.35,3.35.18,5.06-.08,3.76.06,13.01-3.89,4.49-2.35-4.45-5.07-8.82-4.67-14.13-.96-5.3-2.02-11.78-.39-16.77,1.99-.23,2.69,1.75,3.88,2.99.44.89,2.48,2.26,2.09,3.1-.87,2.01,1.93,4.07,2,6.26.41,1.91.51,3.98,1.43,5.57Z"/>
    <path class="cls-1" d="M34.35,73.59c.98-5.59,3.16-11.45,6.31-16.05.28-.78-.06-1.84.57-2.61,2.13-3.38,4.02-6.94,6.66-9.97.47-.55,1.06-.72,1.77-.5.46.47-.34,1.56-.37,2.22-.34.78-.28,1.52,0,2.31.09,1.01-.73,1.93-1.01,2.88-.67,1.89-.14,4.04-1.57,5.68-.66,1.41-2.33,2.97-2.22,4.47.3.54.25.44-.18.72-2.89,1.84-4.18,5.5-6.67,7.93-.96.94-.92,2.49-1.94,3.34-.76.79-1.66,1.02-1.34-.43Z"/>
    <path class="cls-2" d="M41.17,5.21c3.4,2.72,2.7,11.58,2.79,15.8-.52,4.4-3.31,8.06-4.17,12.36-.4,1.01-.95,4.87-1.88,4.81-2.64-1.09-1.22-4.45-1.39-6.62-.55-3.02-.2-5.96.45-8.94.71-5.85.5-12.42,4.2-17.42Z"/>
  </g>
  <g>
    <path d="M42.28,117.54c.14-.34.24-.72.43-1.06l2.02-3.98c.29-.67,1.15-1.92,1.54-2.45.19-.29,2.5-2.59,2.54-2.64.72-.43,1.49-.86,2.26-1.25,2.21-1.01,2.3-1.3,3.65,1.01.91,1.58-2.78,4.42-3.55,5.42-1.49,1.87-3.12,5.33-3.12,5.33-.1.1-.14.24-.24.34-.67,1.68-1.63,3.98-2.02,6.1-.05.34-.19.72-.24,1.06-.05.48-.38,2.83-.38,3.46-.19,4.61.29,4.94,1.39,6.53.91,1.3,3.5,1.92,3.79,1.97.43.14.82.19,1.25,0,.19-.05.38-.14.53-.29,1.97-1.63,2.35-3.02,2.83-4.22.24-.72,1.1-2.83.96-4.56,0-.19.05-.43.1-.62.05-.38.1-.82.14-1.2-.38-.1-.77-.1-1.1.1-.24.1-3.31,1.3-4.37,1.39-.14,0-.29-.05-.43-.1-.1-.05-.19-.1-.34-.19.19-.48.43-.91.62-1.39.14-.29.38-.48.58-.67.96-.86,2.11-1.34,3.31-1.68.34-.1.62-.14.91-.24.14-.05.34-.1.43-.24.05,0,.1-.05.14-.05,1.34-.05,1.68-1.01,3.55.91.05.05.1.1.14.14.53.43.58.67.24,1.34-.58.14-1.15.29-1.78.43-.1.34-.24.67-.1,1.01.05.1.05.19,0,.29-.58,3.7-2.21,7.1-2.45,7.54-.43.77-.96,1.49-1.97,2.78-.29.38-2.02,1.87-2.02,1.87-.29.34-.72.48-1.06.62-.38.14-.77.19-1.2.24-.86,0-1.73,0-2.59-.05-6.82-.72-7.44-9.55-6.19-16.75.34-2.06.96-4.22,1.78-6.24ZM43.82,139.33s-.05.05,0,.05v-.05Z"/>
    <path d="M76.08,124.21c-.14.14-.29.34-.24.53-1.1.72-.91,4.08-3.31,5.28-.14.05-.19.24-.38.1-.14.19-2.78.1-3.41-2.35-.05-.1-.05-.24-.05-.34-.14-.91,0-1.87.19-2.83-.19.19-3.94,3.6-5.18,2.98-.91-.34-1.54-1.1-1.68-2.16,0-3.79,3.22-5.38,5.42-7.49,0-.19.19-.29.24-.43.53-.1.62.29,1.01.34.34.34.82.48,1.1.86-.19.58-.96.62-1.2,1.15-.14,0-.19.1-.34.14-.19.19-3.79,3.31-3.98,4.7-.29.53-.48,1.15-.34,1.78,1.68-.77,3.55-2.4,4.85-3.65.19-.19.58-.34.72-.58.05-.1,0-.24.05-.34.05-.24.29-.48.24-.77,0-.1.1-.1.1-.19.24-.91.43-1.97.72-2.83.24-.77.62-1.39.58-2.3.38.38.86.1,1.2.34.14.05.05-.1.14-.05.24.38.53.67.86.91.43,1.06.58,5.86-.24,10.66,1.15-1.54,2.06-3.31,3.02-5.04,0-.1-.05-.05-.05-.14.34-.38.48-.91.77-1.34q-.05-.1-.1-.14c.14-.14.24-.29.34-.48,0,.34,0,.62.05.96-.05.14-.05.34-.1.38.14,1.15-.86,1.54-1.01,2.35Z"/>
    <path d="M76.75,114.9c-.05-.67.1-1.39.38-2.21.24.14.53.34.72.48,0,.05-.05.05-.05.1.05-.05.05,0,.05.05.05-.05.05-.1.1-.1.19.14.38.34.48.53.1,0,.05-.1.05-.14t.1.05c-.05.1-.1.05.05.1.05.29.34.48.53.67.14.43.19.82.19,1.25.1.58.29,1.2.34,1.82,0,.29.05.62.1.91.1.29.24.67.14.86v3.41c-.1-.05-.14.05-.24.1,0-.05-.05-.05-.05-.1-.05,0,0,.1-.05.14.05-.1.05,0,.1-.05.05.05-.14.1,0,.24,0,0,.05-.05-.05-.1.05-.05.1,0,.14,0,.05.05-.05.05,0,.1.05,0,.1,0,.1.05.48-.72.77-1.54,1.39-2.11.05-.43.86-.58.67-1.15,0-.05-.05.05-.05,0,.24-.43.82-.1,1.25-.19.29.24.62.34.86.67-.14.48.1,1.49-.14,2.06t.05-.05c.14.38-.1.72.05.91-.14.86.29,2.45.29,2.45.14.1.05.19.24.34h-.05c.91,1.1,1.49-.19,2.59-.72.05-.14.19-.24.34-.34.05-.14.14-.14.14-.34.1.05.14.14.24.24-.05.14-.19.19-.14.38-.05,0-.14.1-.14,0-.1,0,.05.14.1.1.05,0-.1.05-.05.1-.1-.1-.05.05-.19.05.05.05.1-.05.14,0-.05,0-.14.24-.24.14-.05,0,0,.05-.05.05,0,.05.05.05.05.05,0,.14-.1.1-.14.19-.1,0-.05-.1-.14-.14,0,.05,0,.14.1.19-.1.43-1.34,1.3-1.34,1.34l-1.3.14c-.86-.1-1.78-.72-2.11-1.34-.34-.34-.67-.82-.77-1.2-.58-1.25-.19-2.54.19-3.7-.14.1-.29.29-.34.43-.05,0-.05-.05-.05-.05-.14.38-.48,1.1-.67,1.54,0,.05-.05,0-.1,0,.1.14-.05.43-.14.43.1.29-.14.29-.19.43-.14.24-.34.77-.38,1.06,0,.14.05.43-.1.48,0,.1,0,.19.05.24-.05-.05-.05.1-.1,0,0,.1.05.05.14.1h-.05s.1,2.93.1,2.93c-.1,0-.1.1-.14,0,0,0,.05,1.3.1,1.44-.1-.05-.14.1-.05.14,0,0-.05.05,0,.05,0,.05-.05,0-.05,0,0,.05,0,.1.05.1-.19.19-.29,1.34-.29,1.34l-.05-.05s-.05.14-.14.14c0,.05.05,0,.1.05-.05.05-.14,0-.19.05,0,.05.1,0,.14.05,0,0-.05,0-.05.05-.05,0-.1-.05-.1-.05-1.78,1.92-1.54.96-2.78.96,0-.1-.1-.14-.14-.14.05.05.05,0,.1.05,0,.1-.05,0-.14,0v-.1h-.1s0-.14.05-.19c-.1,0-.1.14-.1.14-.48-.05-.91-.67-1.15-1.1.05.05.05,0,.1,0-.05,0-.1-.05-.14-.1.1-.19.1-.48.05-.67.05.05.1-.14.1-.24h.1c-.1-.05-.05-.1-.05-.29.1,0,0,0,.05.1t.05-.05c0-.1-.05-.05-.14-.05.14-.19.05-.34.1-.58,0,.1.14-.05,0-.05.05-.05.1.05.14,0l-.1-.05s.24-2.11.19-2.69l.48-2.26c-.1,0-.1-.14-.1-.1,0,0,.24-1.49.19-1.49l.38-3.84s-.05.05-.05.05c-.05-.48.43-3.94.38-4.51h.1ZM77.13,131.55s-.05-.05-.1-.1c0,.05-.05.1-.05.14.1.05.1-.05.14-.05Z"/>
    <path d="M97.1,138.42c-.1.58,0,1.15-.14,1.73-.1-.1-.19.1-.24.1,0,.05-.05-.05,0-.05-.1-.05-.05.14-.14.19-.58.62-3.22-.38-3.41-.14-1.44-.43-1.54-2.11-1.39-7.15h.1c-.14-.53.05-1.2,0-1.78-.34.19-.86.43-1.44.53-.05-.1-.34,0-.38-.14-.58.1-.96-.24-1.39-.43-.96-.82-1.58-.72-1.92-3.12l-.05.05v-.29c0-.53.1-1.01.14-1.54.05-.14.1-.29,0-.43.29-.53.38-1.25.62-1.78.05-.05.05,0,.1,0l-.05-.19c2.45-3.65,3.02-2.83,3.46-3.26,5.14-.72,1.1-3.6,3.65-11.62.29-.86,1.01-2.06.82-3.31,0-.05-.14-.05-.14-.14s.14-.1.1-.24c.1,0,.19.1.24.14.96.1,1.54.58,1.78,1.39-.14,1.2-.34,30.67-.34,30.67.19.05-.14.62.05.82ZM92.83,122.77c-1.06-.62-1.97.14-2.5.62,0,.29-.29.48-.43.67.1.29-.38.48-.29.82-.14.05-.24.29-.14.43-.38.48-.34,1.25-.67,1.78,0,.34.05.67,0,1.06-.05.24-.19.43-.19.58,0,.24.19.38.14.62.05.1.14.05.14.14.14.77.77,1.25,1.44,1.2.24-.05.58-.24.82-.38.38-.24.67-.53.91-.67l.38-5.28c.1-.1.14-.24.19-.38-.05-.05-.05.14-.1,0,.14-.19.14-.77.34-.86,0-.1-.05,0-.1,0,.05-.1.05-.19.05-.34Z"/>
    <path d="M114.96,120.27c-.1.19-.14.43-.24.48-.14,1.34-1.58,1.49-2.02,2.45-.24.1-.48.29-.48.53-.14.05-.24.1-.34.19-.05.29-2.54,3.74-3.02,3.74-2.64,1.3-.34,0-2.3,1.58-.91.38-1.63.96-2.59.96-.62-.05-1.15-.19-1.78-.24-1.49-.91-2.74-2.06-3.07-3.84-.05-.24-.05-.48-.1-.72v-.14c-.34-3.02,1.44-6.24,1.87-6.53.05-.05,0,0,.05-.1.05-.1.14-.19.29-.34.14-.19.29-.43.48-.53.53-.77,1.68-1.54,2.64-1.97.1-.05.34-.05.43,0,0,0,.14.24.19.1.14.1.24.19.34.24.05.1.14.19.34.24,0,.24.24.19.38.24.19.05.58.38.72.58l-.05.05.1.05c.82.82-.96,3.84-1.01,4.03-.05,0-.05-.05-.1-.05-.1.43-.77,1.1-.77,1.1,0,0-.86.96-.86,1.01h-.05s-.05.05-.05.1c-.1.1-.19.24-.29.34-.05,0-.05.05-.1.05l-.1.1c-.19.14-.48.34-.48.38.05.05-.05.1-.1.05-.1.19-.38.1-.48.38,0-.05-.05,0-.05-.05-.1.1-.24,2.02-.14,2.21-.05.05-.05,0-.05,0,.1.34-.29.19.67,1.34.48.14.91.29,1.34.19.48-.05,1.1-.29,1.58-.48,1.01-.58,1.92-1.54,1.92-1.54,0,0,.05,0,.1-.05s.14-.1.19-.14c.34-.24.91-.77,1.15-.96.29-.24.53-.43.77-.67.58-.53,1.15-1.06,1.68-1.63.58-.58,1.15-1.1,1.73-1.68.05-.1-.05-.1,0-.19.53-.34.91-.96,1.39-1.34,0-.1,0-.14-.05-.19.19-.14.38-.29.53-.48-.05.38-.14.77-.24,1.15ZM104.01,120.37c-.38.29-.48.77-.77,1.2v.19s-.1-.05-.1,0c-.19.24-.1.53-.34.72v.1c-.05.29-.24.62-.24.91.14-.29.38-.48.48-.82.24-.24.43-.53.58-.77,0-.05.05-.1.1-.14.19-.19.38-.48.53-.72.05-.1.1-.19.19-.19,0-.1.05-.1.05-.14.29-.29.43-.62.67-.96.38-.53.72-1.1.77-1.92v-.05c-.24-.05-.24-.29-.58-.24l-1.34,2.64c.05.1,0,.1,0,.19Z"/>
    <path d="M128.59,121.47c.14.91-.67,1.25-.82,1.92-.1.1-.19.29-.19.43-.34.19-.34.91-.62,1.15,0,.05.05.05.05.1-.19.05-.58,3.5-3.79,2.64-.43-.29-.77-.72-.96-1.15-.34-1.15-.05-3.94.14-5.18.05-.53.19-1.1.14-1.54-.1-.43-.34-.91-.62-1.3-1.01.14-2.06,2.11-2.16,2.45-.67.58-.96,1.49-1.63,2.02.05.14-.05.14-.1.24.05.05.05.24,0,.29t.1.1c-.05.1-.1.24,0,.34-.34,1.97-.48,8.21-.82,8.64.05.1,0,0-.05,0,0,.34-.67.34-.58.58-.14-.14-.29-.14-.48-.1-.05,0,0,.1,0,.14-.29,0-.38-.05-.82-.05,0,.05.05.05.05.05.05.1-.19,0-.19-.1-.19-.05-.34,0-.38-.14-.1.1-.24-.1-.34-.14,0-.05.05-.1.05-.14-.24-.72-.58-3.79-.67-3.84,0-.38.05-.67,0-1.15v-.14s.05-.05.05-.05l-.05-.05s.05-.05.05-.1c0,.05.05.05.1.05,0-.24.05-.67-.05-.96t0-.05v-.14s.1-.14,0-.24c0-.67-.05-1.39-.19-2.11.43-.82.05-2.93.34-5.14.05-.67.53-3.07.58-3.26.05-.38.05-.77.29-1.06.1-.72.62-1.06.77-1.78.29.48.96.48,1.2.96.1.05.1.14.19.19.05.19.05.34.19.38-.1.19.1.38.14.53l.38,6.67c.91-1.25,1.63-2.64,3.26-3.17.29-.24.77-.24,1.2-.19,1.01.19,1.58.96,1.92,1.87-.1.1.1.29-.05.34.72,1.3-.34,5.9-.34,6.1-.05.34.14.58.34.82.48-.05.82-.48,1.06-.77,1.01-1.34,1.78-2.83,2.59-4.32,0-.05-.05-.05-.05-.1.29-.29.38-.77.62-1.1,0-.05-.05-.1-.05-.14.1-.1.14-.24.24-.34,0,.24.05.48.05.72-.05.14,0,.29-.1.34Z"/>
  </g>
  <g>
    <path d="M66.59,66.55c.13-.4-.22-.62-.1-.98.21-.04.37-.13.52-.07.27-.19.7.24,1,.31q-.05.05-.1.04t.1.11c.05-.05.06-.1.1-.05,0,.05.2.01.19.22.16-.04.19.22.4.23.19.32.53.59.76.91.14.31.38.53.57.8v.2c.09.06.08.26.17.37.97,0,1.94-.04,2.96.02,1.68.15,3.17.74,4.35,1.63.04.21.24.32.39.38.08.31.58.6.66.91q0-.05.05-.05c.09.16.14.31.19.27.32.63.58,1.46.58,2.33-.05.05-.11.2-.07.25-.22.24-.24.7-.47.99q-.05-.05-.05-.1c-.05.05,0,.05,0,.15-.1,0-.11.15-.21.04q.05.05.04.1c-.1,0-.05.05-.1,0,0,.05-.11.15-.21.09-.02.31-1.4,1.3-1.4,1.2-.05,0-.06.1-.06.15-.31.08-.43.38-.79.47-.02.41-1.6,1.13-1.69.97,0,.15-.11.15-.17.25-.83.26-1.63.77-2.31,1.14-.05,0,0,0-.05-.05-.27.24-.58.32-1.04.35v-.1s-.05.15-.05.05c-.05.05-.11.1-.16.14-.1,0-.16.09-.36.08-.06.1-.02.31-.07.4-.1.04-.1,0-.1.04-.05.05.05,0,.05,0,.23.47-.4,5.19-.31,5.4-.05-.05-.05.05-.05.05q.05.05-.01.2c.05.05.14.31-.02.41l-.54,12.07c-.19-.22-1.7,6.44-2.88,3.05-.06.1-.1.04-.1-.06-.06.15-.15,0-.25-.01.05.1-.06.1,0,.1-1.04.35-.53-.64-.72-.86.01-.25.38-.34.08-.56.05-.05-.41-1.76.02-1.28v-.05c-.27.24.35-13.98.59-13.81,0-.05-.04-.1-.1-.11.16-.09.01-.2.12-.3-.05-.05-.15,0,0-.05-.29-.32.67-17.94.7-18.35,0-.05-.05,0-.05-.05ZM65.34,99.01c-.16.09-.31.08-.06.1-.1-.06.05,0,.06-.1ZM65.38,97.38c-.1,0-.05.05-.06.1,0-.05.05-.05.06-.1ZM68.16,97.03q-.05.05-.06.1c.05.05.16-.04.11-.1q-.05.05-.05,0ZM75.17,76.44c.37-.18.65-.58.97-.81.4-.69,1.04-1.17,1.03-1.98-.01-.66-.38-1.35-.76-1.83-.43-.54-1.01-1.08-1.66-1.32-.4-.12-.96-.16-1.26-.33-.1.04-3.01-.12-3.11-.08.08.41.2.88.14,1.13,0,.1.08.41.07.62-.56,6.2-1.52,8.7,4.27,4.84.1-.04.16-.14.32-.24ZM69.54,86.33c.05,0,.05-.05.1,0,0-.05.05-.05,0-.05-.06.1-.1-.06-.15,0l.05.05ZM68.82,98.86h.1c.02-.3-.09-.15-.1,0Z"/>
    <path d="M90.26,86.81c-.16.14-.33.34-.29.55-1.21.7-1.22,4.27-3.83,5.4-.16.04-.22.24-.41.08-.16.19-2.96-.07-3.47-2.7-.04-.11-.04-.26-.03-.36-.1-.98.11-1.99.38-2.99-.21.19-4.39,3.58-5.68,2.84-.95-.41-1.56-1.26-1.65-2.39.23-4.02,3.74-5.51,6.21-7.61.01-.2.22-.29.28-.44.57-.07.64.34,1.05.42.34.38.84.56,1.12.98-.24.6-1.06.6-1.34,1.15-.15,0-.21.09-.37.13-.22.19-4.22,3.28-4.51,4.75-.34.54-.58,1.19-.46,1.86,1.83-.71,3.91-2.33,5.36-3.57.22-.19.63-.32.8-.57.06-.1.01-.25.07-.35.07-.25.33-.49.3-.8,0-.1.11-.1.11-.2.31-.95.58-2.06.94-2.96.3-.8.75-1.44.75-2.41.38.43.91.16,1.25.43.15.06.06-.1.16-.04.23.42.52.74.86,1.02.39,1.15.25,6.25-.9,11.29,1.32-1.56,2.39-3.39,3.51-5.16,0-.1-.05-.05-.04-.16.38-.39.57-.94.9-1.38q-.04-.1-.09-.16c.16-.14.27-.29.39-.49-.02.36-.04.66,0,1.02-.06.15-.07.35-.13.4.08,1.23-1.01,1.58-1.21,2.43Z"/>
    <path d="M106.12,90.68s-3.01,5.24-3.81,5.86c-.41.03-.58.32-.93.25-.05,0-.05.05-.06.1-.72,0-2.49.62-3.6-1.38-.04-.11-.14-.16-.24-.22-1.12-5.43-.27-3.39.01-8.22.25.17.36-.08.32-.29-.16.04-.16.09-.22.29-.05,0-.05-.05-.05-.11-.05.05-2.13,2.43-2.13,2.43-.36-.02-.58.32-.93.25-.06.1-.26.04-.37.13-1.06-.21-2.01-.58-2.63-1.33-.18-.37-.37-.74-.49-1.2-.26-.83.04-2.5.36-3.55,0-.1.12-.25.13-.4.06-.1.01-.25.02-.31.06-.1.1-.04.1-.04-.04-.16.14-.71.16-.96.2-.86.37-1.97.43-2.99.07-1.22.19-2.39.2-3.51,0-.1-.15-.06-.09-.21.1,0,.1.11.25.12.1,0,.11-.1.21-.09.2.11.51.08.76.15.24.32.64.39.88.71.09.16.08.36.12.62.08.36.32.58.3.99,0,.05-.38,3.14-.4,3.35.31.78-.78,1.18-.51,2.58-.5.64-.31,1.77-.61,2.62,0,.1.04.16.04.26-.09.66-.13,1.42.24,2.01.93-.25,1.19-1.21,1.84-1.78.89-1.33,2.22-2.22,3.02-3.66.14-.61.26-1.01.36-1.82.1.11.05,0,.1,0-.14-.16.45-2.48.51-2.63.06-.2-.09-.26.12-.25-.05,0-.1,0-.1-.11.05,0,.05.05.1.06,0-.97.83-1.94.49-3.19,1.44-.22,2.67.56,3.23,1.62.45,1,.14,2,.19,2.87-.11.1-.05.05-.16.19h.05c.04.16.14,2.82.14,2.97h-.15c.06-.11.16-.05.06-.16-.05,0,0,.15-.11.15.15.11-.01.2.09.26,0-.05.05-.05.06-.2,0,.05-.16,1.88-.11,1.99,0,.05-.05,0-.1,0-.06.1.1,0,.09.16-.15-.06,0,.15-.16.19.2.11.15.11.24.22-.16.19.17.62-.04.66.04.11.07,2.35-.07,2.96-.25.75.05,1.74-.28,2.13.04.21-.02.41.01.66-.15,0-.03.46-.15.91,0,.1-.11.2-.12.3s.04.21.04.26-.16.19-.01.25c-.17.25-.23.4-.24.7,1.58-1.75,2.78-3.93,4.12-5.94,0-.1-.05-.1-.04-.21.38-.39.57-.99.95-1.43-.05-.11-.09-.16-.09-.16.11-.15.27-.34.39-.49-.02.31-.04.66,0,1.02-.06.2-.07.4-.13.45.13,1.23-1.06,1.63-1.27,2.53-.16.14-.33.39-.29.6ZM102.9,89.07s.1.06.11-.1c-.1.04-.05.05-.15,0,0,.05,0,.1.04.1Z"/>
    <path d="M112.84,76.1s.1.11,0,.05c-.09.66-.18,1.32-.21,1.93-.01.25-.08.51-.09.71-.03.51.09,1.18-.04,1.63.09,1.13-.17,2.14-.33,3.05-.1.81,0,1.69-.1,2.65.05,0,.05-.05.05-.05,0,.05.04.21-.06.2.12,4.2-.24,13.01-.24,13.01,0,0,.05.05.04.1-.08,1.48,0,3.58.32,5.08-.05,0-.05.05-.05.05,0,.05,0,0,.05.05-.05.05.1.11-.06.1.1.11.08.31.13.42-.1,0-.1.04-.16.04.15,0-.06.15-.1.05-.1,0,0,0,0,.1-.05,0-1.01-.21-1.81-1.33-.05.05-.01.25.03.41-.15-.11-.09-.21-.24-.27,0,.1.09.16.08.31h-.1c.19.26.54,1.3-.15.85-.31-1.65-2.18.69-2.84-1.19-.05.05-.1.04-.16.04,0-.1-.04-.21-.14-.21,0-.05.06-.1.11-.1-.05,0-.25-.12-.05-.1-.53-.59.66-16,.47-16.22q.05,0,.05.05c-.04-.26.04-.71,0-.87,0-.05.1-.05.11-.1s-.05.05-.05.05c-.1,0,.06-.1-.05-.1h.05s0-.1-.05-.1q0-.05.05-.05c0-.05-.05-.05-.1-.11,0-.05.1,0,.1-.04,0-.1-.05.05-.05-.05s.06-.15-.04-.16c-.05,0,.06-.1.05-.05-.16-.78.43-4.78.14-5.1.3-.75.35-1.67.45-2.53h.05s1.54-8.95,1.54-8.95c.07-.3.09-.66.11-1.01.11-.1.06-.2-.03-.36.1-.04.25.12.3.17.1-.04-.04-.16-.04-.26.15.06.19.27.35.17,1.32,1.1,1.38,1.77,1.97,4.81.18,1.29.81,1.89.74,3.21ZM112.26,104.88c-1.43,3.54,2.86-9.85,3.53-14.25.02-.36.94-.41.92-.05-.8,5.01-2.25,9.83-4.45,14.3Z"/>
    <path d="M130.53,89.12c-.16.14-.33.34-.29.55-1.21.7-1.22,4.27-3.83,5.4-.16.04-.22.24-.41.08-.16.19-2.96-.07-3.47-2.7-.04-.11-.04-.26-.03-.36-.1-.98.11-1.99.38-2.99-.22.19-4.39,3.58-5.68,2.84-.95-.41-1.56-1.26-1.65-2.39.23-4.02,3.74-5.51,6.21-7.61.01-.2.22-.29.28-.44.57-.07.64.34,1.05.42.34.38.84.56,1.12.98-.24.6-1.06.6-1.34,1.15-.15,0-.21.09-.36.13-.22.19-4.22,3.28-4.51,4.75-.34.54-.58,1.19-.47,1.86,1.83-.71,3.91-2.33,5.36-3.57.22-.19.63-.32.8-.57.06-.1.01-.25.07-.35.07-.25.33-.49.3-.8,0-.1.11-.1.11-.2.31-.95.58-2.06.94-2.96.3-.8.75-1.44.75-2.41.38.43.91.16,1.25.43.15.06.06-.1.16-.04.23.42.52.74.86,1.02.39,1.15.25,6.25-.9,11.29,1.32-1.56,2.39-3.39,3.51-5.16,0-.1-.05-.05-.04-.16.38-.39.56-.94.9-1.38q-.04-.1-.09-.16c.16-.14.27-.29.39-.49-.02.36-.04.66,0,1.02-.06.15-.07.35-.13.4.08,1.23-1.01,1.58-1.21,2.43Z"/>
    <path d="M137.2,93.87l4.68-4.94c-.13-.42-.52-.64-.87-.87-.56-.85-2.63-1.38-2.8-2.77-.04-.11-.16.04-.15-.11h.1c-.33-1.34,1.1-2.23,1.56-3.07.52-.23.71-.73,1.33-.84.16-.09.17-.3.38-.34.1,0,.09.16.24.22.16-.04.31-.03.31-.14.34.33,1.06.27,1.28.79,0,.15-.11.15-.07.35-.85.51-1.36,1.4-2.35,1.86-.34.59-.83,1.03-.96,1.58.13,1.23,2.1,1.6,2.82,2.51.65-.63,3.42-3.53,3.92-4.27.26-.04.27-.29.48-.33.39-.59.98-1.02,1.41-1.45-.02.36-.04.71-.11,1.02-3.2,4.06-1.88,1.58-5.12,5.53.34.28.68.65.92.92-.07.25.18.37.28.53.19.27.17.67.3,1.04-.05.05-.06.15-.11.2.26,2.52-5.79,7.43-7.64,3.14.16-.09.22-.29.19-.55ZM142.14,89.65c-.32.29-.45.64-.97.86-.05.05.04.11-.01.2l-2.81,3.52c.05,0,.05.05.04.1-.11.05-.17.25-.18.4.24.27.46-.08.62-.17.11-.1.21-.09.31-.13.58-.38,1.17-.85,1.72-1.43.82-.87,1.33-1.86,1.31-3.3,0-.05-.05-.05-.05-.05Z"/>
    <path d="M134.07,79.19c-.14.07-.36.19-.42.26-.1.02-.19.07-.27.1-.06-.02-.09,0-.15.02-.12.02-.23-.03-.33-.06t-.05-.04c-.05.02-.12.02-.2-.01,0-.04.04-.13-.04-.16.02-.03,1.51-4.21,1.55-4.21t0,.02c.19-.21.87-3.97,1.25-4.63t.02,0c0-.14.29-.43.28-.46-.02,0-.03.03-.05,0,.02,0,.03,0,.03,0h-.04s0-.03.04-.04c-.02,0-.04-.01-.01-.07.05,0,.01.07.06.02.11-.18.25-.19.39-.17,1.34.96,2.08.05,2.22.32-.31.13.09.09.24.11l-4.02,8.64c-.16.1-.33.22-.5.35Z"/>
  </g>
</svg>